<svg xmlns="http://www.w3.org/2000/svg" width="800" height="800" viewBox="0 0 800 800" version="1.1">
	<path d="M -0 400.001 L -0 800.002 400.250 799.751 L 800.500 799.500 800.751 399.750 L 801.002 0 400.501 0 L 0 0 -0 400.001 M 0.495 400.500 C 0.495 620.500, 0.610 710.351, 0.750 600.169 C 0.890 489.986, 0.890 309.986, 0.750 200.169 C 0.610 90.351, 0.495 180.500, 0.495 400.500 M 230.441 183.357 C 223.044 186.108, 217.872 190.058, 213.915 195.980 C 207.579 205.464, 207.949 192.211, 208.237 399.550 L 208.500 588.500 211.431 593.500 C 215.281 600.066, 223.896 608.271, 230.282 611.453 C 235.263 613.935, 235.915 614, 255.946 613.988 C 277.069 613.976, 282.803 613.224, 289.942 609.531 C 294.841 606.996, 303.828 598.222, 306.354 593.507 C 308.489 589.520, 308.502 589.076, 309 503.280 L 309.500 417.059 319 425.368 C 332.062 436.793, 366.956 470.921, 456.661 560.010 C 510.546 613.525, 509.490 612.686, 524.720 614.075 C 537.766 615.264, 563.040 614.421, 569.350 612.587 C 577.068 610.343, 585.749 603.558, 589.990 596.455 C 592.950 591.499, 593.537 589.496, 593.850 583.296 C 594.335 573.698, 593.571 570.136, 590.246 566.482 C 588.736 564.823, 583.900 559.442, 579.500 554.525 C 567.519 541.136, 534.206 507.178, 468.265 441.135 L 408.992 381.770 417.922 372.135 C 430.521 358.541, 559.959 229.748, 574.750 216.088 C 586.508 205.229, 587 204.613, 587 200.755 C 587 193.951, 581.727 187.655, 572.436 183.365 C 568.925 181.744, 564.803 181.511, 534.247 181.214 C 501.875 180.899, 499.568 180.997, 492.247 183 C 476.708 187.251, 471.519 191.580, 412.520 249.500 C 400.866 260.941, 378.827 281.883, 361.526 297.956 C 357.112 302.058, 345.850 313.169, 336.500 322.649 C 327.150 332.129, 317.481 341.539, 315.014 343.561 L 310.528 347.236 309.864 344.868 C 309.498 343.566, 309.145 312.125, 309.078 275 C 308.960 209.934, 308.884 207.342, 306.970 203.123 C 302.816 193.968, 293.852 186.067, 284.145 183.005 C 278.611 181.259, 275.119 181.007, 257.145 181.052 C 238.261 181.100, 235.983 181.296, 230.441 183.357" stroke="none" fill="#000000" fill-rule="evenodd"/>
</svg>